<?xml version="1.0" encoding="UTF-8" standalone="no"?>
<svg
   inkscape:version="1.3.2 (091e20e, 2023-11-25, custom)"
   id="svg8"
   version="1.1"
   viewBox="0 0 16 16"
   height="16"
   width="16"
   sodipodi:docname="stat-manager-icon.svg"
   xmlns:inkscape="http://www.inkscape.org/namespaces/inkscape"
   xmlns:sodipodi="http://sodipodi.sourceforge.net/DTD/sodipodi-0.dtd"
   xmlns:xlink="http://www.w3.org/1999/xlink"
   xmlns="http://www.w3.org/2000/svg"
   xmlns:svg="http://www.w3.org/2000/svg"
   xmlns:rdf="http://www.w3.org/1999/02/22-rdf-syntax-ns#"
   xmlns:cc="http://creativecommons.org/ns#"
   xmlns:dc="http://purl.org/dc/elements/1.1/">
  <defs
     id="defs2">
    <mask
       maskUnits="userSpaceOnUse"
       id="mask4662">
      <rect
         style="fill:url(#linearGradient4666);fill-opacity:1;stroke:none;stroke-width:3;stroke-linecap:round;paint-order:markers stroke fill"
         id="rect4664"
         width="88.50853"
         height="60.308647"
         x="-133.74002"
         y="-153.00528" />
    </mask>
    <linearGradient
       inkscape:collect="always"
       xlink:href="#linearGradient4164"
       id="linearGradient4666"
       gradientUnits="userSpaceOnUse"
       x1="-99.956009"
       y1="-122.85096"
       x2="-98.559975"
       y2="-122.85096" />
    <linearGradient
       inkscape:collect="always"
       id="linearGradient4164">
      <stop
         style="stop-color:#ffffff;stop-opacity:0.5"
         offset="0"
         id="stop4160" />
      <stop
         style="stop-color:#ffffff;stop-opacity:1"
         offset="1"
         id="stop4162" />
    </linearGradient>
    <mask
       maskUnits="userSpaceOnUse"
       id="mask4662-4">
      <rect
         style="fill:url(#linearGradient4666);fill-opacity:1;stroke:none;stroke-width:3;stroke-linecap:round;paint-order:markers stroke fill"
         id="rect4664-9"
         width="88.50853"
         height="60.308647"
         x="-133.74002"
         y="-153.00528" />
    </mask>
  </defs>
  <sodipodi:namedview
     guidetolerance="19.9"
     objecttolerance="11"
     inkscape:showpageshadow="false"
     borderlayer="true"
     inkscape:pagecheckerboard="false"
     units="px"
     showgrid="true"
     inkscape:document-rotation="0"
     inkscape:current-layer="layer1"
     inkscape:document-units="px"
     inkscape:cy="3.0014721"
     inkscape:cx="1.2564302"
     inkscape:zoom="7.1631517"
     inkscape:pageshadow="2"
     inkscape:pageopacity="0"
     borderopacity="1"
     bordercolor="#931476"
     pagecolor="#808080"
     id="base"
     gridtolerance="11.4"
     inkscape:window-width="1920"
     inkscape:window-height="1013"
     inkscape:window-x="2391"
     inkscape:window-y="-9"
     inkscape:window-maximized="1"
     inkscape:blackoutopacity="0.0"
     inkscape:deskcolor="#636363"
     inkscape:snap-global="false" />
  <metadata
     id="metadata5">
    <rdf:RDF>
      <cc:Work
         rdf:about="">
        <dc:format>image/svg+xml</dc:format>
        <dc:type
           rdf:resource="http://purl.org/dc/dcmitype/StillImage" />
        <cc:license
           rdf:resource="http://creativecommons.org/licenses/by-sa/4.0/" />
      </cc:Work>
      <cc:License
         rdf:about="http://creativecommons.org/licenses/by-sa/4.0/">
        <cc:permits
           rdf:resource="http://creativecommons.org/ns#Reproduction" />
        <cc:permits
           rdf:resource="http://creativecommons.org/ns#Distribution" />
        <cc:requires
           rdf:resource="http://creativecommons.org/ns#Notice" />
        <cc:requires
           rdf:resource="http://creativecommons.org/ns#Attribution" />
        <cc:permits
           rdf:resource="http://creativecommons.org/ns#DerivativeWorks" />
        <cc:requires
           rdf:resource="http://creativecommons.org/ns#ShareAlike" />
      </cc:License>
    </rdf:RDF>
  </metadata>
  <g
     id="layer1"
     inkscape:groupmode="layer"
     inkscape:label="workspace">
    <path
       id="text1"
       style="font-style:normal;font-variant:normal;font-weight:bold;font-stretch:normal;font-size:19.645px;line-height:1.25;font-family:'Atkinson Hyperlegible';-inkscape-font-specification:'Atkinson Hyperlegible Bold';letter-spacing:1.01294px;fill:#ffffff;stroke-width:0.999994"
       d="M 10.823783,1 C 10.23689,1 9.6510149,1.0863613 9.0641209,1.2617187 8.477227,1.4235871 7.9362748,1.674493 7.443284,2.0117188 6.962031,2.3489445 6.575642,2.7805685 6.282195,3.3066406 5.988748,3.8327128 5.8422792,4.4590924 5.8422792,5.1875 c 0,0.424424 0.051299,0.8079678 0.1514465,1.1542969 H 10.475817 L 10.032296,6.2402344 C 9.6332081,6.1458112 9.3106164,5.9771776 9.0641209,5.734375 8.8176255,5.4915725 8.6945196,5.200507 8.6945196,4.8632813 c 0,-0.41816 0.1761231,-0.7353475 0.5282594,-0.951172 0.3638743,-0.2293135 0.815863,-0.3437499 1.355805,-0.3437499 0.551681,0 1.020743,0.1224318 1.408091,0.3652344 0.399088,0.2428024 0.674955,0.5921542 0.827547,1.0507812 L 15.331116,3.9335938 C 15.084622,3.2321642 14.727886,2.6720661 14.258371,2.2539063 13.788856,1.8222573 13.254195,1.5050698 12.655564,1.3027344 12.068669,1.100399 11.457629,1 10.823783,1 Z m 1.092578,8.6582031 c 0.173155,0.079352 0.332965,0.1669986 0.475974,0.2636719 0.399089,0.256292 0.598575,0.621634 0.598575,1.09375 0,0.350715 -0.106035,0.633785 -0.317317,0.849609 -0.211282,0.202336 -0.476367,0.35089 -0.793291,0.445312 -0.316922,0.08094 -0.645806,0.121095 -0.986204,0.121095 -0.645583,0 -1.1973153,-0.15655 -1.6550927,-0.466798 C 8.7929661,11.654596 8.4892486,11.176771 8.3249182,10.529297 l -2.5367269,1.052734 c 0.3638742,1.079123 0.9812065,1.922291 1.8498094,2.529297 C 8.5183416,14.704845 9.598443,15 10.877872,15 c 0.610369,0 1.208827,-0.09436 1.795721,-0.283203 0.586895,-0.202336 1.115263,-0.491448 1.584778,-0.86914 0.481254,-0.377694 0.861351,-0.843435 1.14306,-1.396485 0.293448,-0.56654 0.441718,-1.206957 0.441718,-1.921875 0,-0.315378 -0.02893,-0.6048011 -0.08113,-0.8710939 z" />
    <circle
       style="fill:#ffffff;stroke-width:7;stroke-miterlimit:5;paint-order:markers stroke fill"
       id="path1"
       cx="2.8444183"
       cy="3.7769985"
       r="2.6001124" />
    <circle
       style="fill:#ffffff;stroke-width:7;stroke-miterlimit:5;paint-order:markers stroke fill"
       id="circle1"
       cx="2.7746167"
       cy="12.223001"
       r="2.6001124" />
  </g>
  <g
     inkscape:groupmode="layer"
     id="layer4"
     inkscape:label="tools"
     sodipodi:insensitive="true"
     style="display:none">
    <rect
       style="fill:#3b3c3a;fill-opacity:1;stroke-width:6.20734;stroke-linecap:round;paint-order:markers stroke fill"
       id="rect25306"
       width="259.6073"
       height="164.72081"
       x="9.6449594"
       y="-181.53185" />
    <rect
       style="fill:#7bb79d;fill-opacity:1;stroke:none;stroke-width:5.60344;stroke-linecap:round;paint-order:markers stroke fill"
       id="rect4056"
       width="153.4043"
       height="112.10314"
       x="18.698523"
       y="-139.97699" />
    <rect
       style="fill:#c29861;fill-opacity:1;stroke:none;stroke-width:3;stroke-linecap:round;paint-order:markers stroke fill"
       id="rect4058"
       width="88.50853"
       height="60.308647"
       x="-133.74002"
       y="-153.00528"
       mask="url(#mask4662-4)"
       transform="matrix(1.8678128,0,0,1.8678128,344.68264,145.53717)" />
  </g>
</svg>
